<svg xmlns="http://www.w3.org/2000/svg" viewBox="0 0 100 100" width="100" height="100" role="img" aria-label="Mind">
<svg xmlns="http://www.w3.org/2000/svg" viewBox="0 0 1117 1000" x="6" y="6" width="88" height="88" preserveAspectRatio="xMidYMid meet" fill="none" role="img" aria-label="Mind mark">
<path d="M649.519 158.493C733.832 109.815 834.713 115.832 911.081 165.532L1024.2 361.468C1024.58 368.478 1024.66 375.484 1024.44 382.467L958.413 381.857C959.693 348.382 951.854 314.154 933.868 283C883.058 194.994 770.525 164.842 682.519 215.652C621.928 250.634 588.762 314.874 590.559 380.223H590.473C590.473 402.865 581.867 434.585 577.391 449.551H535.839C501.606 340.309 546.242 218.121 649.519 158.493Z" fill="url(#paint0_linear_1_509)"/>
<path d="M649.519 158.493C733.832 109.815 834.713 115.832 911.081 165.532L1024.2 361.468C1024.58 368.478 1024.66 375.484 1024.44 382.467L958.413 381.857C959.693 348.382 951.854 314.154 933.868 283C883.058 194.994 770.525 164.842 682.519 215.652C621.928 250.634 588.762 314.874 590.559 380.223H590.473C590.473 402.865 581.867 434.585 577.391 449.551H535.839C501.606 340.309 546.242 218.121 649.519 158.493Z" fill="url(#paint1_linear_1_509)"/>
<path d="M671.137 27C677.394 30.1807 683.5 33.6167 689.44 37.2949L655.898 94.1719C627.547 76.3259 593.986 66 558.013 66C456.392 66 374.013 148.38 374.013 250C374.013 319.964 413.063 380.807 470.556 411.925L470.513 412C490.068 423.29 513.162 446.508 523.924 457.9L503.111 493.95C391.45 468.93 308.013 369.21 308.013 250C308.013 152.643 363.663 68.286 444.889 27H671.137Z" fill="url(#paint2_linear_1_509)"/>
<path d="M671.137 27C677.394 30.1807 683.5 33.6167 689.44 37.2949L655.898 94.1719C627.547 76.3259 593.986 66 558.013 66C456.392 66 374.013 148.38 374.013 250C374.013 319.964 413.063 380.807 470.556 411.925L470.513 412C490.068 423.29 513.162 446.508 523.924 457.9L503.111 493.95C391.45 468.93 308.013 369.21 308.013 250C308.013 152.643 363.663 68.286 444.889 27H671.137Z" fill="url(#paint3_linear_1_509)"/>
<path d="M255.498 212.315C225.868 227.944 200.145 251.846 182.158 283C131.348 371.006 161.501 483.538 249.507 534.349C310.098 569.331 382.314 565.933 438.009 531.702L438.053 531.777C457.754 520.403 489.732 511.969 504.846 508.391L525.558 544.265C448.083 628.666 319.85 651.171 216.507 591.506C132.194 542.828 86.9638 452.455 91.8215 361.469L204.945 165.531C210.829 161.702 216.857 158.133 223.013 154.828L255.498 212.315Z" fill="url(#paint4_linear_1_509)"/>
<path d="M255.498 212.315C225.868 227.944 200.145 251.846 182.158 283C131.348 371.006 161.501 483.538 249.507 534.349C310.098 569.331 382.314 565.933 438.009 531.702L438.053 531.777C457.754 520.403 489.732 511.969 504.846 508.391L525.558 544.265C448.083 628.666 319.85 651.171 216.507 591.506C132.194 542.828 86.9638 452.455 91.8215 361.469L204.945 165.531C210.829 161.702 216.857 158.133 223.013 154.828L255.498 212.315Z" fill="url(#paint5_linear_1_509)"/>
<path d="M579.979 549.787C614.601 659.197 569.992 781.758 466.506 841.506C382.193 890.184 281.312 884.169 204.945 834.469L91.8208 638.531C91.4465 631.522 91.3692 624.516 91.5844 617.533L157.613 618.144C156.333 651.619 164.171 685.846 182.158 717C232.968 805.006 345.501 835.159 433.506 784.349C494.097 749.366 527.264 685.127 525.466 619.777H525.553C525.553 596.796 534.417 564.462 538.832 549.787H579.979Z" fill="url(#paint6_linear_1_509)"/>
<path d="M579.979 549.787C614.601 659.197 569.992 781.758 466.506 841.506C382.193 890.184 281.312 884.169 204.945 834.469L91.8208 638.531C91.4465 631.522 91.3692 624.516 91.5844 617.533L157.613 618.144C156.333 651.619 164.171 685.846 182.158 717C232.968 805.006 345.501 835.159 433.506 784.349C494.097 749.366 527.264 685.127 525.466 619.777H525.553C525.553 596.796 534.417 564.462 538.832 549.787H579.979Z" fill="url(#paint7_linear_1_509)"/>
<path d="M611.987 505.842C724.113 530.517 808.013 630.46 808.013 750C808.013 847.357 752.362 931.714 671.137 973H444.889C438.631 969.819 432.525 966.383 426.585 962.705L460.128 905.828C488.478 923.674 522.039 934 558.013 934C659.633 934 742.013 851.62 742.013 750C742.013 680.036 702.963 619.193 645.47 588.075L645.513 588C625.555 576.477 601.91 552.531 591.452 541.411L611.987 505.842Z" fill="url(#paint8_linear_1_509)"/>
<path d="M611.987 505.842C724.113 530.517 808.013 630.46 808.013 750C808.013 847.357 752.362 931.714 671.137 973H444.889C438.631 969.819 432.525 966.383 426.585 962.705L460.128 905.828C488.478 923.674 522.039 934 558.013 934C659.633 934 742.013 851.62 742.013 750C742.013 680.036 702.963 619.193 645.47 588.075L645.513 588C625.555 576.477 601.91 552.531 591.452 541.411L611.987 505.842Z" fill="url(#paint9_linear_1_509)"/>
<path d="M590.295 455.921C667.752 371.366 796.099 348.784 899.519 408.493C983.832 457.171 1029.06 547.545 1024.2 638.531L911.08 834.468C905.197 838.297 899.168 841.867 893.013 845.172L860.527 787.685C890.158 772.056 915.88 748.154 933.867 717C984.677 628.994 954.524 516.462 866.519 465.651C805.928 430.669 733.712 434.066 678.017 468.297L677.973 468.223C658.164 479.659 625.941 488.122 610.932 491.667L590.295 455.921Z" fill="url(#paint10_linear_1_509)"/>
<path d="M590.295 455.921C667.752 371.366 796.099 348.784 899.519 408.493C983.832 457.171 1029.06 547.545 1024.2 638.531L911.08 834.468C905.197 838.297 899.168 841.867 893.013 845.172L860.527 787.685C890.158 772.056 915.88 748.154 933.867 717C984.677 628.994 954.524 516.462 866.519 465.651C805.928 430.669 733.712 434.066 678.017 468.297L677.973 468.223C658.164 479.659 625.941 488.122 610.932 491.667L590.295 455.921Z" fill="url(#paint11_linear_1_509)"/>
<path d="M357.853 100.19C403.454 39.3601 476.137 -3.85778e-06 558.013 -8.74928e-06C696.084 -8.74928e-06 808.013 111.929 808.013 250C808.013 339.737 760.732 418.431 689.723 462.53C701.514 424.024 710.247 383.257 716.411 343.681C732.675 316.24 742.013 284.211 742.013 250C742.013 170.769 691.934 103.237 621.704 77.3242C621.303 77.1518 620.907 76.9863 620.513 76.8349C587.14 64.0217 550.896 57 513.013 57C456.226 57 403.125 72.7791 357.853 100.19Z" fill="url(#paint12_linear_1_509)"/>
<path d="M357.853 100.19C403.454 39.3601 476.137 -3.85778e-06 558.013 -8.74928e-06C696.084 -8.74928e-06 808.013 111.929 808.013 250C808.013 339.737 760.732 418.431 689.723 462.53C701.514 424.024 710.247 383.257 716.411 343.681C732.675 316.24 742.013 284.211 742.013 250C742.013 170.769 691.934 103.237 621.704 77.3242C621.303 77.1518 620.907 76.9863 620.513 76.8349C587.14 64.0217 550.896 57 513.013 57C456.226 57 403.125 72.7791 357.853 100.19Z" fill="url(#paint13_linear_1_509)"/>
<path d="M111.687 473.439C81.8076 403.532 84.062 320.907 125 250C194.036 130.427 346.933 89.458 466.506 158.494C544.221 203.362 588.731 283.656 591.418 367.201C563.967 337.736 533.027 309.79 501.835 284.663C486.203 256.858 463.134 232.757 433.506 215.651C364.891 176.036 281.367 185.639 223.81 233.504C223.461 233.765 223.119 234.025 222.791 234.291C195.008 256.786 170.805 284.663 151.864 317.471C123.47 366.65 110.585 420.527 111.687 473.439Z" fill="url(#paint14_linear_1_509)"/>
<path d="M111.687 473.439C81.8076 403.532 84.062 320.907 125 250C194.036 130.427 346.933 89.458 466.506 158.494C544.221 203.362 588.731 283.656 591.418 367.201C563.967 337.736 533.027 309.79 501.835 284.663C486.203 256.858 463.134 232.757 433.506 215.651C364.891 176.036 281.367 185.639 223.81 233.504C223.461 233.765 223.119 234.025 222.791 234.291C195.008 256.786 170.805 284.663 151.864 317.471C123.47 366.65 110.585 420.527 111.687 473.439Z" fill="url(#paint15_linear_1_509)"/>
<path d="M311.848 873.249C236.366 864.172 165.938 820.907 125 750C55.9644 630.427 96.9332 477.529 216.506 408.494C294.221 363.625 386.012 365.225 459.708 404.671C420.465 413.712 380.793 426.533 343.437 440.983C311.541 440.618 279.134 448.546 249.506 465.651C180.891 505.267 147.445 582.402 160.119 656.18C160.17 656.613 160.225 657.039 160.291 657.456C165.881 692.764 177.922 727.663 196.864 760.471C225.257 809.65 265.473 847.748 311.848 873.249Z" fill="url(#paint16_linear_1_509)"/>
<path d="M311.848 873.249C236.366 864.172 165.938 820.907 125 750C55.9644 630.427 96.9332 477.529 216.506 408.494C294.221 363.625 386.012 365.225 459.708 404.671C420.465 413.712 380.793 426.533 343.437 440.983C311.541 440.618 279.134 448.546 249.506 465.651C180.891 505.267 147.445 582.402 160.119 656.18C160.17 656.613 160.225 657.039 160.291 657.456C165.881 692.764 177.922 727.663 196.864 760.471C225.257 809.65 265.473 847.748 311.848 873.249Z" fill="url(#paint17_linear_1_509)"/>
<path d="M758.173 899.81C712.571 960.64 639.889 1000 558.013 1000C419.942 1000 308.013 888.071 308.013 750C308.013 660.263 355.294 581.569 426.303 537.47C414.511 575.975 405.779 616.743 399.614 656.319C383.35 683.76 374.013 715.789 374.013 750C374.013 829.23 424.091 896.763 494.321 922.676C494.722 922.848 495.118 923.014 495.513 923.165C528.886 935.978 565.129 943 603.013 943C659.8 943 712.901 927.221 758.173 899.81Z" fill="url(#paint18_linear_1_509)"/>
<path d="M758.173 899.81C712.571 960.64 639.889 1000 558.013 1000C419.942 1000 308.013 888.071 308.013 750C308.013 660.263 355.294 581.569 426.303 537.47C414.511 575.975 405.779 616.743 399.614 656.319C383.35 683.76 374.013 715.789 374.013 750C374.013 829.23 424.091 896.763 494.321 922.676C494.722 922.848 495.118 923.014 495.513 923.165C528.886 935.978 565.129 943 603.013 943C659.8 943 712.901 927.221 758.173 899.81Z" fill="url(#paint19_linear_1_509)"/>
<path d="M1004.34 526.561C1034.22 596.468 1031.96 679.093 991.025 750C921.99 869.573 769.092 910.542 649.519 841.506C571.804 796.638 527.294 716.344 524.607 632.799C552.059 662.264 582.999 690.21 614.19 715.337C629.822 743.142 652.892 767.243 682.519 784.349C751.135 823.964 834.658 814.361 892.215 766.496C892.565 766.235 892.906 765.975 893.234 765.709C921.017 743.214 945.22 715.337 964.162 682.529C992.555 633.35 1005.44 579.473 1004.34 526.561Z" fill="url(#paint20_linear_1_509)"/>
<path d="M1004.34 526.561C1034.22 596.468 1031.96 679.093 991.025 750C921.99 869.573 769.092 910.542 649.519 841.506C571.804 796.638 527.294 716.344 524.607 632.799C552.059 662.264 582.999 690.21 614.19 715.337C629.822 743.142 652.892 767.243 682.519 784.349C751.135 823.964 834.658 814.361 892.215 766.496C892.565 766.235 892.906 765.975 893.234 765.709C921.017 743.214 945.22 715.337 964.162 682.529C992.555 633.35 1005.44 579.473 1004.34 526.561Z" fill="url(#paint21_linear_1_509)"/>
<path d="M804.178 126.751C879.659 135.828 950.087 179.093 991.025 250C1060.06 369.573 1019.09 522.471 899.519 591.506C821.804 636.375 730.013 634.775 656.317 595.329C695.56 586.288 735.232 573.467 772.589 559.017C804.485 559.382 836.892 551.454 866.519 534.349C935.135 494.733 968.58 417.598 955.906 343.82C955.855 343.387 955.8 342.961 955.734 342.544C950.145 307.236 938.104 272.337 919.162 239.529C890.769 190.35 850.553 152.252 804.178 126.751Z" fill="url(#paint22_linear_1_509)"/>
<path d="M804.178 126.751C879.659 135.828 950.087 179.093 991.025 250C1060.06 369.573 1019.09 522.471 899.519 591.506C821.804 636.375 730.013 634.775 656.317 595.329C695.56 586.288 735.232 573.467 772.589 559.017C804.485 559.382 836.892 551.454 866.519 534.349C935.135 494.733 968.58 417.598 955.906 343.82C955.855 343.387 955.8 342.961 955.734 342.544C950.145 307.236 938.104 272.337 919.162 239.529C890.769 190.35 850.553 152.252 804.178 126.751Z" fill="url(#paint23_linear_1_509)"/>
<path d="M243.067 145.181C312.975 115.301 395.599 117.556 466.506 158.494C569.783 218.121 614.419 340.308 580.186 449.55H534.52C533.92 449.55 533.384 449.552 532.901 449.558C529.435 431.228 524.928 403.741 525.215 386.005C527.957 339.614 512.99 293.363 483.003 257.304C482.742 256.955 482.482 256.613 482.216 256.285C459.721 228.502 431.843 204.299 399.035 185.357C349.856 156.964 295.98 144.078 243.067 145.181Z" fill="url(#paint24_linear_1_509)"/>
<path d="M216.507 408.494C319.745 348.89 447.823 371.287 525.322 455.478L502.697 494.669C502.296 495.364 501.953 495.96 501.666 496.488C484.06 490.323 458.077 480.505 442.892 471.407C404.086 445.836 356.549 435.673 310.327 443.613C309.894 443.664 309.468 443.719 309.051 443.785C273.742 449.375 238.843 461.416 206.035 480.357C156.856 508.751 118.759 548.967 93.2579 595.342C102.335 519.86 145.6 449.432 216.507 408.494Z" fill="url(#paint25_linear_1_509)"/>
<path d="M525.858 544.787C526.32 545.587 526.709 546.253 527.06 546.814C512.922 558.986 491.257 576.746 475.69 585.401C434.142 606.222 401.571 642.31 385.337 686.309C385.165 686.709 384.999 687.106 384.848 687.5C372.034 720.873 365.013 757.117 365.013 795C365.013 851.787 380.792 904.888 408.203 950.16C347.373 904.559 308.013 831.876 308.013 750C308.013 630.67 391.619 530.868 503.45 505.974L525.858 544.787Z" fill="url(#paint26_linear_1_509)"/>
<path d="M582.994 549.767C586.476 568.091 591.102 596.04 590.812 613.994C588.07 660.386 603.037 706.636 633.024 742.695C633.285 743.045 633.545 743.387 633.811 743.715C656.306 771.498 684.183 795.701 716.991 814.643C766.169 843.036 820.046 855.921 872.958 854.818C803.051 884.698 720.426 882.444 649.52 841.506C546.034 781.758 501.426 659.198 536.048 549.787H580.844C581.673 549.787 582.38 549.784 582.994 549.767Z" fill="url(#paint27_linear_1_509)"/>
<path d="M1022.77 404.658C1013.69 480.14 970.425 550.568 899.519 591.506C795.994 651.275 667.493 628.587 590.061 543.821L612.665 504.669C612.977 504.128 613.254 503.646 613.497 503.211C631.107 509.355 657.699 519.346 673.134 528.593C711.939 554.163 759.477 564.327 805.698 556.387C806.132 556.335 806.558 556.281 806.975 556.215C842.283 550.625 877.182 538.584 909.99 519.643C959.169 491.249 997.267 451.033 1022.77 404.658Z" fill="url(#paint28_linear_1_509)"/>
<path d="M707.821 49.8398C768.652 95.4413 808.012 168.124 808.012 250C808.012 369.419 724.281 469.28 612.325 494.081L589.504 454.551C589.247 454.105 589.01 453.701 588.793 453.333C602.927 441.158 624.705 423.289 640.335 414.599C681.883 393.778 714.453 357.69 730.688 313.691C730.86 313.291 731.025 312.894 731.177 312.5C743.99 279.127 751.012 242.884 751.012 205C751.012 148.213 735.233 95.1118 707.821 49.8398Z" fill="url(#paint29_linear_1_509)"/>
<defs>
<linearGradient id="paint0_linear_1_509" x1="938" y1="212.157" x2="532.029" y2="446.544" gradientUnits="userSpaceOnUse"><stop stop-color="#16B88A"/><stop offset="1" stop-color="#16B88A"/></linearGradient>
<linearGradient id="paint1_linear_1_509" x1="938" y1="212.157" x2="532.029" y2="446.544" gradientUnits="userSpaceOnUse"><stop stop-opacity="0.66"/><stop offset="1" stop-opacity="0"/></linearGradient>
<linearGradient id="paint2_linear_1_509" x1="498.727" y1="27" x2="498.727" y2="495.774" gradientUnits="userSpaceOnUse"><stop stop-color="#16B88A"/><stop offset="1" stop-color="#16B88A"/></linearGradient>
<linearGradient id="paint3_linear_1_509" x1="498.727" y1="27" x2="498.727" y2="495.774" gradientUnits="userSpaceOnUse"><stop stop-opacity="0.8"/><stop offset="1" stop-opacity="0"/></linearGradient>
<linearGradient id="paint4_linear_1_509" x1="118.741" y1="314.843" x2="524.711" y2="549.23" gradientUnits="userSpaceOnUse"><stop stop-color="#16B88A"/><stop offset="1" stop-color="#16B88A"/></linearGradient>
<linearGradient id="paint5_linear_1_509" x1="118.741" y1="314.843" x2="524.711" y2="549.23" gradientUnits="userSpaceOnUse"><stop stop-opacity="0.8"/><stop offset="1" stop-opacity="0"/></linearGradient>
<linearGradient id="paint6_linear_1_509" x1="178.026" y1="787.843" x2="583.996" y2="553.456" gradientUnits="userSpaceOnUse"><stop stop-color="#16B88A"/><stop offset="1" stop-color="#16B88A"/></linearGradient>
<linearGradient id="paint7_linear_1_509" x1="178.026" y1="787.843" x2="583.996" y2="553.456" gradientUnits="userSpaceOnUse"><stop stop-opacity="0.8"/><stop offset="1" stop-opacity="0"/></linearGradient>
<linearGradient id="paint8_linear_1_509" x1="617.299" y1="973" x2="617.299" y2="504.226" gradientUnits="userSpaceOnUse"><stop stop-color="#16B88A"/><stop offset="1" stop-color="#16B88A"/></linearGradient>
<linearGradient id="paint9_linear_1_509" x1="617.299" y1="973" x2="617.299" y2="504.226" gradientUnits="userSpaceOnUse"><stop stop-opacity="0.8"/><stop offset="1" stop-opacity="0"/></linearGradient>
<linearGradient id="paint10_linear_1_509" x1="997.286" y1="685.157" x2="591.315" y2="450.769" gradientUnits="userSpaceOnUse"><stop stop-color="#16B88A"/><stop offset="1" stop-color="#16B88A"/></linearGradient>
<linearGradient id="paint11_linear_1_509" x1="997.286" y1="685.157" x2="591.315" y2="450.769" gradientUnits="userSpaceOnUse"><stop stop-opacity="0.66"/><stop offset="1" stop-opacity="0"/></linearGradient>
<linearGradient id="paint12_linear_1_509" x1="313.013" y1="53.5" x2="881.013" y2="231" gradientUnits="userSpaceOnUse"><stop stop-color="#29CE9F"/><stop offset="1" stop-color="#16B88A"/></linearGradient>
<linearGradient id="paint13_linear_1_509" x1="313.013" y1="53.5" x2="881.013" y2="231" gradientUnits="userSpaceOnUse"><stop stop-opacity="0"/><stop offset="1" stop-opacity="0.8"/></linearGradient>
<linearGradient id="paint14_linear_1_509" x1="48.8324" y1="488.926" x2="486.552" y2="85.7738" gradientUnits="userSpaceOnUse"><stop stop-color="#29CE9F"/><stop offset="1" stop-color="#16B88A"/></linearGradient>
<linearGradient id="paint15_linear_1_509" x1="48.8324" y1="488.926" x2="486.552" y2="85.7738" gradientUnits="userSpaceOnUse"><stop stop-opacity="0"/><stop offset="1" stop-opacity="0.8"/></linearGradient>
<linearGradient id="paint16_linear_1_509" x1="293.832" y1="935.426" x2="163.552" y2="354.774" gradientUnits="userSpaceOnUse"><stop stop-color="#29CE9F"/><stop offset="1" stop-color="#16B88A"/></linearGradient>
<linearGradient id="paint17_linear_1_509" x1="293.832" y1="935.426" x2="163.552" y2="354.774" gradientUnits="userSpaceOnUse"><stop stop-opacity="0"/><stop offset="1" stop-opacity="0.8"/></linearGradient>
<linearGradient id="paint18_linear_1_509" x1="803.013" y1="946.5" x2="235.013" y2="769" gradientUnits="userSpaceOnUse"><stop stop-color="#29CE9F"/><stop offset="1" stop-color="#16B88A"/></linearGradient>
<linearGradient id="paint19_linear_1_509" x1="803.013" y1="946.5" x2="235.013" y2="769" gradientUnits="userSpaceOnUse"><stop stop-opacity="0"/><stop offset="1" stop-opacity="0.8"/></linearGradient>
<linearGradient id="paint20_linear_1_509" x1="1067.19" y1="511.074" x2="629.474" y2="914.226" gradientUnits="userSpaceOnUse"><stop stop-color="#29CE9F"/><stop offset="1" stop-color="#16B88A"/></linearGradient>
<linearGradient id="paint21_linear_1_509" x1="1067.19" y1="511.074" x2="629.474" y2="914.226" gradientUnits="userSpaceOnUse"><stop stop-opacity="0"/><stop offset="1" stop-opacity="0.8"/></linearGradient>
<linearGradient id="paint22_linear_1_509" x1="822.193" y1="64.5738" x2="952.474" y2="645.226" gradientUnits="userSpaceOnUse"><stop stop-color="#29CE9F"/><stop offset="1" stop-color="#16B88A"/></linearGradient>
<linearGradient id="paint23_linear_1_509" x1="822.193" y1="64.5738" x2="952.474" y2="645.226" gradientUnits="userSpaceOnUse"><stop stop-opacity="0"/><stop offset="1" stop-opacity="0.8"/></linearGradient>
<linearGradient id="paint24_linear_1_509" x1="299.747" y1="116.253" x2="556.048" y2="481.526" gradientUnits="userSpaceOnUse"><stop stop-color="#24C89A"/><stop offset="1" stop-color="#00EEAB"/></linearGradient>
<linearGradient id="paint25_linear_1_509" x1="96.546" y1="531.791" x2="541.031" y2="492.465" gradientUnits="userSpaceOnUse"><stop stop-color="#24C89A"/><stop offset="1" stop-color="#00EEAB"/></linearGradient>
<linearGradient id="paint26_linear_1_509" x1="354.811" y1="915.538" x2="542.997" y2="510.939" gradientUnits="userSpaceOnUse"><stop stop-color="#24C89A"/><stop offset="1" stop-color="#00EEAB"/></linearGradient>
<linearGradient id="paint27_linear_1_509" x1="816.278" y1="883.746" x2="559.978" y2="518.474" gradientUnits="userSpaceOnUse"><stop stop-color="#24C89A"/><stop offset="1" stop-color="#00EEAB"/></linearGradient>
<linearGradient id="paint28_linear_1_509" x1="1019.48" y1="468.208" x2="574.994" y2="507.535" gradientUnits="userSpaceOnUse"><stop stop-color="#24C89A"/><stop offset="1" stop-color="#00EEAB"/></linearGradient>
<linearGradient id="paint29_linear_1_509" x1="761.213" y1="84.4624" x2="573.028" y2="489.06" gradientUnits="userSpaceOnUse"><stop stop-color="#24C89A"/><stop offset="1" stop-color="#00EEAB"/></linearGradient>
</defs>
</svg>
</svg>
